<svg xmlns="http://www.w3.org/2000/svg" viewBox="0 0 335.03 83.04">
  <title>me</title>
  <g transform="translate(-84.54 -237.29)">
    <path fill="#ffffff" d="M331,237.29c1.42,0.16,2.83.33,4.25,0.47,2.65,0.27,5.3.57,8,.76a23.17,23.17,0,0,0,3.21-.21,2.7,2.7,0,0,1,2.54,1.26,2.12,2.12,0,0,0,1.35.69c1.18,0.14,2.4,0,3.56.25a2,2,0,0,1,1.35,1.24,2.5,2.5,0,0,1-.7,1.75c-0.5.6-1.27,1-1.83,1.52s-0.72,1.18.15,1.65c1.25,0.67,2.53,1.29,3.74,2a18.92,18.92,0,0,1,2.71,1.92,13.07,13.07,0,0,1,1.62,1.92,8.21,8.21,0,0,0,4.88,3.45l0.05,0.4-5.55,1.38,0.07,0.52c1.4,0.12,2.81.19,4.21,0.35,3.84,0.46,7.65-.13,11.47-0.31,3.1-.14,6.22.1,9.33,0.12,4.27,0,8.54.07,12.81,0a19.61,19.61,0,0,0,4.11-.7,2.26,2.26,0,0,1,2.37.68,4.78,4.78,0,0,0,1.61,1.14c2.68,1,5.38,2,8.1,2.9s3.55,2,3.66,4.88c0.2,5.47.49,10.93,0.71,16.4,0.07,1.86-.3,3.73.42,5.57,0.32,0.83-.25,1.45-1,2a91.77,91.77,0,0,0-7.77,6,19.54,19.54,0,0,0-3.59,5,5.5,5.5,0,0,1-7.45,2.45,2.29,2.29,0,0,1-.86-1.75c0-5.64.15-11.27,0.14-16.91,0-3.13-.24-6.27-0.36-9.4a2.63,2.63,0,0,1,.12-1.06c0.77-1.9.26-3.78-.06-5.65a4.63,4.63,0,0,0-3.27-3.82c-3.26-1-6.55-2.07-9.88-2.84-1.3-.3-2.77.2-4.16,0.21a26.58,26.58,0,0,1-4.26-.27,39.28,39.28,0,0,0-10.2-.29c-2.25.22-4.54-.08-6.81,0-3.18.09-6.36,0.27-9.53,0.46-2,.12-4,0.29-6.06.53s-4,.68-6,0.9c-3.45.37-6.91,0.58-10.36,0.95-1.34.14-2.65,0.51-4,.76a7,7,0,0,1-2,.27,15.19,15.19,0,0,0-5.51.66c-6,1.49-12.1,2.94-18.18,4.26A123.94,123.94,0,0,0,283,275.93a45.41,45.41,0,0,1-6.17,1.37c-1.72.35-3.33,0.82-4.19,2.58-0.32.64-.76,1.22-1.11,1.85a10.52,10.52,0,0,0-1.42,6c0.15,2.42.08,4.86,0.25,7.28,0.07,1,.61,2,0.76,3.07a21.18,21.18,0,0,0,4,10.13c1.49,2,1.61,4.2,1.94,6.42,0.2,1.37-.58,2.18-2,2.53-1.15.28-2-.16-2.5-1.5-2.14-5.54-4.23-11.1-6.36-16.64-1.13-2.94-2.27-5.88-3.5-8.78a2.58,2.58,0,0,0-1.42-1.24,36.53,36.53,0,0,0-28.74,2,2,2,0,0,0-1.33,1.67c-0.24,2.65-.5,5.31-0.6,8-0.11,3,0,6-.11,9a10,10,0,0,1-2.78,6c-1.3,1.55-2.49,3.19-3.73,4.8h-1.2a2.6,2.6,0,0,1-.29-3.56,6.54,6.54,0,0,0,.77-2.25c0.51-2.53.49-5.19,2.06-7.43a1.81,1.81,0,0,0,.13-0.94c0.07-4.24.17-8.47,0.16-12.71a6.08,6.08,0,0,0-.67-2.63c-1.19-2.35-2.48-4.65-3.81-6.93a3.42,3.42,0,0,0-1.43-1.32c-2.07-.94-4.18-1.81-6.3-2.63a8.88,8.88,0,0,0-2.31-.48c-2.38-.23-4.79-0.26-7.15-0.65-4.14-.68-8.22-1.63-12.46-1.51a18.6,18.6,0,0,1-3.41-.58,15.07,15.07,0,0,0-2.23-.28c-4.35-.06-8.71,0-13.06-0.14-5.87-.24-11.73-0.66-17.59-1-3.44-.22-6.82.39-10.22,0.64-4.34.32-8.72,0.18-13.06,0.56a52.87,52.87,0,0,0-9.16,1.69c-4.44,1.2-8.8,2.62-13.47,2.61a7.49,7.49,0,0,0-3,1,32.75,32.75,0,0,0-3,1.82,9.64,9.64,0,0,0-1.42.88,9,9,0,0,0-2.28,2.36,7.25,7.25,0,0,0-.39,3.16c0.05,4.29,0,8.59.33,12.85,0.33,3.93,1.17,7.82,1.79,11.72,0,0.27.2,0.51,0.27,0.77,0.3,1.15.59,2.3,1,3.73a17.43,17.43,0,0,1-1.82-.33c-1.22-.38-2.4-0.88-3.64-1.2a6,6,0,0,1-4.21-3.76c-0.46-1.1-.78-2.26-1.16-3.4a9.84,9.84,0,0,0-2.52-4.41A4.35,4.35,0,0,1,88,303.5c-0.51-3.39-.94-6.8-1.25-10.22a19,19,0,0,0-2.2-8v-1.44a9.94,9.94,0,0,1,2.31-1.34A8.66,8.66,0,0,0,92.62,278c0.17-.32.39-0.61,0.57-0.91a8.25,8.25,0,0,1,4.08-3.38,18.86,18.86,0,0,1,7.26-1.34c2.76,0,5.51.14,8.27,0.17a28.84,28.84,0,0,0,4.65-.11c4-.6,6-2.53,6.75-6.52a14.87,14.87,0,0,1,6.51-10.08,32.18,32.18,0,0,0,7.05-6.62,16.77,16.77,0,0,1,9.19-5.86,61.89,61.89,0,0,1,18.22-2.18c4.07,0.19,8.15.16,12.23,0.18q14.34,0.06,28.68.05c3.6,0,7.15,0,10.6,1.4a24.82,24.82,0,0,0,7.08,1.61c3.77,0.33,7.35,4.9,7.33,9.2,0,2.09-.63,4.16-0.84,6.26a8,8,0,0,1-5.22,7c-1.13.49-2.13,1.26-3.26,1.74a6.33,6.33,0,0,1-2.83.7c-3.21-.28-6.4-0.76-9.6-1.17a4.43,4.43,0,0,1-.94-0.2c-5-1.81-10.29-1.8-15.48-2.33-4.69-.49-9.39-0.77-14.08-1.24-3-.3-6-1-8.95-1.11q-10.54-.26-21.09,0a25.86,25.86,0,0,0-7.11,1.4,7.22,7.22,0,0,0-4.36,4.52,5.38,5.38,0,0,0,3.65.72c3.87-.48,7.74-1.11,11.63-1.3a97.78,97.78,0,0,1,11.74.22c5,0.37,10.07,1.08,15.1,1.56a37.49,37.49,0,0,0,7.13.28c2.4-.24,4.72-0.86,6.92.63a1.31,1.31,0,0,0,.59.1c2.06,0.18,4.12.34,6.18,0.55,1.39,0.14,2.78.29,4.14,0.55,3.25,0.63,6.47,1.36,9.71,2,2.91,0.57,5.83,1.07,8,3.33a1.2,1.2,0,0,0,.65.24c1.3,0.2,2.6.39,3.91,0.57l7.94,1.1a30.78,30.78,0,0,0,5.41.69,92.53,92.53,0,0,0,23.35-3.8,45.77,45.77,0,0,0,7.58-3.16,3.88,3.88,0,0,0,1.86-4.56,10.94,10.94,0,0,0-2.9-5.68,22.06,22.06,0,0,1-2.27-2.63c-1.78-2.39-1.79-4.24.14-6.51a26.15,26.15,0,0,1,14-9c6.86-1.63,13.74-3.21,20.66-4.54,5.83-1.12,11.72-1.85,17.59-2.73,1.56-.23,3.14-0.34,4.72-0.51H331Z" />
    <path fill="#ffffff" d="M338.91,291a25.54,25.54,0,0,1,.16,2.86,5.46,5.46,0,0,1-.52,1.91c-0.41.92-1,1.76-1.4,2.69a6.79,6.79,0,0,1-3.49,3.91,2.19,2.19,0,0,0-.61.38c-3,2.84-6.68,2.6-10.38,2.07-0.84-.12-1.66-0.42-2.5-0.56-1.7-.29-2.28-1.6-3-2.92a6.54,6.54,0,0,0-2.5-2.35,3.34,3.34,0,0,1-2.07-2.93,22.78,22.78,0,0,0-.26-3.22c-0.62-3.13.83-5.57,2.45-8a2.3,2.3,0,0,1,.68-0.67c3.69-2.26,7.41-4.23,12-2.61a43.29,43.29,0,0,0,4.44.88c2.21,0.53,4.45,1,5.45,3.51,0.34,0.85,1.17,1.51,1.47,2.36A10.66,10.66,0,0,1,339,291h-0.13Z" />
    <path fill="#ffffff" d="M198.46,296.84c-0.05,4.83-2.18,8.2-6.66,10.15-7.23,3.14-16.15.69-20.08-5.62a11.24,11.24,0,0,1,.33-12.52,8.42,8.42,0,0,1,7.79-3.57c1.9,0.12,3.82-.09,5.73-0.12a17.82,17.82,0,0,1,4.65.07c4.25,1.11,6.64,4.19,7.77,8.3A25.55,25.55,0,0,1,198.46,296.84Z" />
  </g>
</svg>